<svg width="256" height="256" viewBox="0 0 256 256" fill="none" xmlns="http://www.w3.org/2000/svg">
  <rect width="256" height="256" rx="128" fill="#A44E22"/>
  <path d="M161.245 70.1816C149.166 63.782 135.643 60.7272 121.988 61.3292C108.332 61.9311 95.1362 66.168 83.6652 73.6217C72.1942 81.0754 62.8626 91.472 56.6325 103.726C50.4024 115.979 47.4838 129.677 48.1649 143.407C48.8461 157.136 53.1034 170.48 60.5136 181.982C67.9238 193.485 78.2321 202.745 90.3937 208.782C102.555 214.819 116.096 217.418 129.629 216.304C143.161 215.19 156.102 210.403 167.058 202.456L154.92 185.725C147.857 191.093 139.41 194.335 130.561 195.071C121.712 195.808 112.851 194.008 104.984 189.874C97.1174 185.741 90.5593 179.444 86.0711 171.722C81.583 164.001 79.3453 155.157 79.6136 146.229C79.882 137.302 82.6454 128.607 87.5887 121.169C92.5321 113.731 99.4688 107.84 107.599 104.17C115.729 100.5 124.725 99.1947 133.567 100.404C142.408 101.614 150.724 105.289 157.566 111.001L161.245 70.1816Z" fill="#FDF9F2"/>
  <path d="M178.12 92.873C185.88 103.345 190.457 115.836 191.315 128.847C192.174 141.858 189.279 154.842 182.983 166.263C176.687 177.684 167.255 187.089 155.817 193.349C144.378 199.608 131.385 202.462 118.376 201.567L119.933 179.047C128.419 179.633 136.891 177.792 144.327 173.738C151.763 169.683 157.842 163.588 161.878 156.141C165.915 148.695 167.733 140.219 167.125 131.735C166.518 123.251 163.51 115.123 158.464 108.272L178.12 92.873Z" fill="#FDF9F2"/>
</svg>
